<svg xmlns="http://www.w3.org/2000/svg" viewBox="0 0 1024 1024"><path fill="#FFFFFF" d="m582.688 58.438 3.03.06c2.75.06 5.49.12 8.23.19.79.01 1.57.03 2.39.05 3.13.08 5.67.27 8.66 1.26 1.36.14 2.72.23 4.08.28l2.46.12c.88.03 1.75.07 2.65.1.9.04 1.81.08 2.73.13 3.86.17 7.72.33 11.58.5 2.81.12 5.63.25 8.44.37.88.04 1.76.07 2.66.11 6.18.28 6.18.28 8.4 1.39 1.7.14 3.4.23 5.1.28l3.12.12c1.08.03 2.17.07 3.28.1 21.72.72 21.72.72 23.5 2.5 1.7.21 3.41.35 5.11.47 1.06.07 2.12.15 3.21.23 1.13.08 2.27.16 3.43.24 7.87.58 15.6 1.28 23.37 2.62 5.26.81 10.57 1.11 15.88 1.44v3h20l1 2c2.1.22 4.21.32 6.31.38 13.26.61 26.2 3.95 39.06 7.06 4.01.96 8.03 1.87 12.07 2.71 13.04 2.74 25.8 6.02 38.56 9.85v3c1.15.08 2.3.16 3.49.25 4.83.61 8.49 2.45 12.7 4.81.73.41 1.46.81 2.22 1.22 18.02 9.96 18.02 9.96 23.59 15.72.81.48 1.61.95 2.44 1.44 3 1.83 5.15 4.02 7.56 6.56l2 2v3h3v3h3v3h3v3h3v4c.61.1 1.22.19 1.84.28 2.71.9 3.27 1.83 4.75 4.22.45.72.9 1.44 1.37 2.18.47.76.94 1.53 1.42 2.32.98 1.58 1.96 3.15 2.94 4.73.7 1.13.7 1.13 1.41 2.28 1.41 2.2 2.95 4.28 4.52 6.37 4.26 6.36 6.44 13.92 8.89 21.11.82 2.38 1.69 4.73 2.57 7.09 10.68 29.59 7.22 64.33.29 94.42-.17.75-.33 1.49-.51 2.25-1.41 6.26-2.91 12.49-4.49 18.7-.25.97-.25.97-.5 1.96-.33 1.31-.66 2.61-.99 3.91-1.58 6.25-2.88 12.56-4.11 18.89-.16.76-.31 1.52-.47 2.31-.13.67-.26 1.34-.4 2.04-.53 1.94-.53 1.94-1.48 3.72-1.48 3.14-2.04 6.42-2.7 9.8-.15.74-.3 1.47-.45 2.22-.47 2.34-.94 4.68-1.4 7.02-.46 2.32-.93 4.65-1.39 6.97-.29 1.45-.58 2.89-.86 4.34-.88 4.36-2 8.6-3.25 12.87-.46 2.41-.9 4.83-1.31 7.25-1.07 6.06-2.49 11.95-4.12 17.88-2.18 7.9-3.72 15.82-5.12 23.89-1.17 6.69-2.67 13.18-4.38 19.75-1.32 5.11-2.4 10.26-3.5 15.42-1.71 7.91-3.43 15.81-5.26 23.69-.2.9-.4 1.81-.61 2.74-.29 1.24-.29 1.24-.58 2.5-.17.73-.34 1.46-.51 2.21-.61 1.67-.61 1.67-2.61 2.67-.39 2.14-.39 2.14-.49 4.74-.49 6.59-1.53 13.01-2.7 19.51-.21 1.21-.43 2.43-.65 3.67-2.32 12.6-5.44 24.97-9.1 37.25-1.27 4.62-2.27 9.27-3.26 13.95-2.74 12.77-5.66 25.49-8.62 38.21-.88 3.79-1.75 7.58-2.62 11.36-.57 2.43-1.13 4.86-1.69 7.29-.26 1.12-.52 2.24-.79 3.39-1.16 4.98-2.4 9.81-4.08 14.63a89 89 0 0 0-.62 5.88c-.08.96-.15 1.93-.23 2.93l-.15 2.19h-3l.12 3.85c0 5.36-.93 10.36-2.05 15.59-.28 1.34-.28 1.34-.56 2.72-1.35 6.53-1.35 6.53-2.51 8.84-.27 2.27-.44 4.54-.62 6.81-.38 2.19-.38 2.19-2.38 5.19-.42 2.21-.42 2.21-.56 4.56-.34 4.25-.34 4.25-1.44 6.44h-3c.21 1.22.42 2.44.63 3.69.79 7.03.35 15.34-3.63 21.31-.64 2.41-.64 2.41-1.07 5.11-.17.98-.35 1.96-.53 2.98-.17 1.02-.34 2.04-.52 3.1-.18 1.04-.37 2.07-.55 3.14-.45 2.56-.89 5.11-1.33 7.67l-3 1c-.14 1.72-.14 1.72-.28 3.47-.61 4.76-2.17 8.75-4.15 13.09-.53 1.16-.53 1.16-1.06 2.35-3.68 7.93-8.44 14.99-13.51 22.09l-2 3h-3c-.1.75-.2 1.5-.31 2.27-.76 3.01-1.65 4.26-3.74 6.53-.63.68-1.26 1.37-1.92 2.08l-2.03 2.12c-.98 1.04-.98 1.04-1.99 2.09-2.03 2.1-4.07 4.16-6.13 6.23l-2.09 2.12c-3.4 3.41-6.5 6.28-10.79 8.56-.8.84-.8.84-1.62 1.69-1.38 1.31-1.38 1.31-4.38 1.31l-1 3c-2.65 1.61-2.65 1.61-5.93 3.19-1.09.53-2.17 1.06-3.28 1.61-2.79 1.2-2.79 1.2-4.79 1.2l-1 3c-1.61 1.05-1.61 1.05-3.63 1.98-.73.34-1.46.68-2.2 1.03-.72.33-1.43.66-2.17.99-10.07 4.99-20.08 10.09-30.06 15.25-1.17.6-2.33 1.21-3.53 1.83-6.84 3.54-6.84 3.54-13.53 7.33-2.97 1.64-4.55 2-7.88 1.59v3h-6v3h-6v3h-5c-.12.64-.24 1.28-.37 1.94-.21.68-.42 1.36-.63 2.06-2.71 1.36-5.01 1.07-8 1-.03.88-.03.88-.07 1.78-1.46 3.49-4.53 4.36-7.8 5.85-1.47.69-2.93 1.39-4.39 2.1-.78.36-1.55.73-2.34 1.11-4.06 1.97-8.04 4.1-12.02 6.22-3.13 1.65-6.25 3.3-9.38 4.94-.7.37-1.41.75-2.14 1.13-1.92 1.01-3.86 2-5.79 3-1.09.56-2.17 1.12-3.28 1.69-2.79 1.18-2.79 1.18-6.79 1.18v3h-6v3h-6v3h-5v3h-6v3h-6v3c-5.89 2.3-10.66 3.35-17 3v3c-.64.14-1.27.27-1.93.4-.83.18-1.65.36-2.5.54-.83.17-1.65.35-2.5.53-2.04.34-2.04.34-3.07 1.53-23.67 5.45-50.57 5.28-74-1-1.58-.39-3.17-.77-4.76-1.15-3.75-.91-7.5-1.87-11.24-2.85v-3c-1.07-.06-2.14-.12-3.25-.18-10.88-1.39-21.23-7.87-31-12.63-1.29-.62-2.57-1.25-3.86-1.87-7.3-3.54-14.56-7.15-21.79-10.81-5.58-2.81-11.29-5.22-17.1-7.51v-3h-7v-2c-.6-.16-1.21-.31-1.83-.48-5.67-1.58-10.68-3.61-15.84-6.43-2.45-1.14-4.67-1.66-7.33-2.09v-3h-5v-3c-1.09-.06-2.19-.12-3.32-.18-5.69-.72-10.42-3.26-15.49-5.82-1.86-.92-3.72-1.83-5.58-2.75-1.22-.61-1.22-.61-2.47-1.23-2.24-1.12-2.24-1.12-5.14-2.02v-3c-1.17-.1-2.34-.19-3.54-.29-4.31-.55-7.91-2.01-11.77-3.96l-3.9-1.89-1.92-.95c-2.75-1.34-5.52-2.59-8.3-3.85-1.33-.6-1.33-.6-2.69-1.21l-1.88-.85v-3h-8l-1-4h-5v-2c-1.05-.12-2.1-.24-3.19-.37-3.27-.54-5.81-1.27-8.81-2.63v-3l-3.31-.18c-5.71-.68-10.59-3.28-15.69-5.82v-3c-.59-.12-1.18-.24-1.78-.36-3.65-1.05-6.41-3.32-9.47-5.51-.65-.45-1.3-.9-1.97-1.36-1.65-1.18-3.22-2.46-4.78-3.77v-3h-3v-3h-3v-2h-3v-4h-3v-3c-.76-.27-1.52-.53-2.31-.81-2.59-1.15-3.99-1.95-5.69-4.19v-3l-1.87-.18c-2.13-.82-2.13-.82-3.38-3.19-.75-2.63-.75-2.63-.75-5.63-.59-.05-1.17-.1-1.78-.15-3.3-1.26-4.04-3.36-5.72-6.41-.56-1.01-1.13-2.02-1.72-3.07-11.93-22.59-17.97-45.03-22.55-70.04-1.45-7.81-3.23-15.4-5.39-23.04-.94-3.69-1.39-7.24-1.56-11.04-.21-2.34-.21-2.34-1.16-4.84-1.54-4.71-2.45-9.49-3.43-14.35-.44-2.14-.88-4.29-1.32-6.44-.22-1.1-.45-2.19-.68-3.32-1.08-5.19-2.23-10.37-3.38-15.55-1.51-6.86-2.91-13.67-3.85-20.64-.39-2.4-.39-2.4-2.46-5.11-.4-2.05-.73-4.11-1-6.18a119.5 119.5 0 0 0-3.99-18.11c-.97-3.57-1.62-7.05-2.2-10.71-1.5-8.99-3.54-17.86-5.58-26.75-2.54-11.08-4.89-22.19-7.16-33.34-1.56-7.61-3.28-15.14-5.31-22.65-.71-3.04-1.12-5.95-1.4-9.06-.35-2.4-.35-2.4-1.29-5.46-1.09-3.82-1.89-7.65-2.62-11.56-.28-1.51-.57-3.02-.86-4.52-.14-.78-.29-1.56-.44-2.37-2.18-11.51-4.4-22.99-7.23-34.36-1.32-5.35-2.54-10.71-3.71-16.1-.16-.72-.31-1.44-.47-2.18-.78-3.6-1.56-7.21-2.33-10.81-.28-1.33-.57-2.66-.86-3.99-.25-1.18-.5-2.35-.76-3.56-.76-3.17-1.74-6.2-2.79-9.29-.57-3.28-1-6.57-1.43-9.88-.44-3.05-.44-3.05-1.54-5.49-1.03-2.64-1.6-5.07-2.11-7.85-.18-1.02-.37-2.04-.57-3.09-.29-1.64-.29-1.64-.6-3.31-2.4-12.89-5.19-25.66-8.08-38.44-.56-2.48-1.11-4.96-1.66-7.44-.14-.68-.29-1.35-.44-2.05-.3-1.35-.59-2.7-.88-4.05-.96-4.36-2.01-8.7-3.11-13.03-4.71-18.49-8.04-36.2-8.58-55.37l-.09-2.31c-.72-18.47 1.89-36.47 9.93-53.22 1.05-2.24 1.95-4.46 2.79-6.78 1.26-3.37 2.7-6.5 4.37-9.69h3c.04-.95.08-1.89.13-2.87.77-5.43 3.91-9.63 6.87-14.13.55-.83 1.1-1.67 1.66-2.53 1.44-2.17 2.88-4.32 4.34-6.47.99-1.48.99-1.48 2-3h4c.27-.74.54-1.48.81-2.25 1.16-2.68 2.17-4.64 4.19-6.75h4c.21-.72.42-1.44.63-2.18 1.77-3.63 4.23-5.32 7.37-7.82.54-.76 1.07-1.52 1.63-2.31.45-.56.91-1.11 1.37-1.69h4c.04-.58.08-1.16.13-1.75 1.34-3.44 3.74-4.35 6.87-6.19.59-.34 1.18-.68 1.78-1.04 1.74-1.02 3.48-2.02 5.22-3.02.89-.54 1.78-1.07 2.69-1.63 1.14-.68 1.14-.68 2.31-1.37.66-.39 1.32-.78 2-1.18 2.44-.99 4.4-.96 7-.82.06-.62.13-1.23.19-1.87.81-2.13.81-2.13 2.97-3.27.94-.29 1.88-.59 2.85-.89 1.04-.34 2.08-.67 3.16-1.01 1.12-.34 2.24-.67 3.4-1.02l3.42-1.06c23.63-7.13 23.63-7.13 30.01-4.88v-3c1.28-.2 1.28-.2 2.59-.4 1.11-.18 2.21-.35 3.35-.54 1.65-.26 1.65-.26 3.34-.52 2.63-.26 2.63-.26 3.72-1.54 3.36-.57 6.72-1.03 10.1-1.5 2.79-.19 2.79-.19 3.9-1.5 1.37-.2 2.74-.34 4.12-.46.83-.08 1.67-.16 2.53-.24 1.76-.16 3.53-.31 5.3-.46.84-.08 1.68-.16 2.54-.24.77-.07 1.54-.13 2.33-.2 2.36-.43 4.06-1.31 6.18-2.4 2.27-.24 4.54-.4 6.81-.5 5.07-.29 9.32-1.08 14.19-2.5 3.4-.33 6.8-.56 10.21-.75 2.75-.07 2.75-.07 4.79-1.25 1.83-.25 3.67-.46 5.51-.65 1.14-.11 2.28-.23 3.45-.35 1.85-.18 1.85-.18 3.73-.37 7.96-.82 15.91-1.67 23.83-2.81 12.19-1.74 24.37-2.54 36.66-3.17.69-.04 1.39-.07 2.1-.11 1.91-.1 3.81-.2 5.72-.29 3.05-.13 3.05-.13 6-1.25 1.47-.13 2.95-.22 4.43-.28.89-.04 1.78-.07 2.7-.11.96-.04 1.92-.07 2.9-.11l3-.12c4.23-.17 8.46-.34 12.68-.5 3.09-.12 6.18-.25 9.26-.38.96-.03 1.92-.07 2.91-.1l2.7-.12 2.37-.09c2.25-.13 2.25-.13 5.05-1.19 2.84-.16 5.65-.26 8.49-.31.89-.02 1.79-.05 2.7-.07l9.12-.18 3.24-.06c44.36-.84 88.78-.85 133.14.06m-170.19 48.94c-1.87.09-1.87.09-3.78.19-13.6.7-27.18 1.55-40.74 2.77-6.05.54-12.09.88-18.17 1.1-6.31.28-11.95 1.2-18.08 2.81-4.99 1.01-9.97 1.33-15.04 1.69-9.48.68-18.72 1.94-28.08 3.6-6.09 1.07-12.14 1.92-18.3 2.52-5.99.6-11.7 1.63-17.55 3.1-3.98.89-7.96 1.54-12 2.17-28.57 4.48-62.34 11.03-84.76 30.67-.83.73-1.66 1.45-2.52 2.2-2.52 2.23-5.01 4.51-7.48 6.8-.91.81-.91.81-1.83 1.64-16.6 15.46-27.46 40.24-28.26 62.85-.04 2.76-.05 5.51-.03 8.26 0 .97 0 1.94.01 2.93-.79 11.34-.79 11.34 2.11 21.32.43 1.87.79 3.76 1.14 5.65.23 1.21.46 2.42.69 3.68.12.65.25 1.31.37 1.99 2.32 12.42 4.84 24.79 7.56 37.13.16.72.32 1.45.49 2.19l2.94 13.26 2.01 9.04c4 18.09 4 18.09 8.14 36.15 1.36 5.99 2.56 12.02 3.77 18.05.98 4.8 2.04 9.54 3.37 14.26 1.77 6.33 3.11 12.73 4.46 19.16.53 2.49 1.05 4.97 1.58 7.45.25 1.2.5 2.39.77 3.63.94 4.44 1.91 8.87 2.9 13.3.28 1.27.56 2.53.86 3.84.5 2.26 1.02 4.51 1.56 6.76 1.72 7.28 3.25 14.59 4.73 21.92.32 1.56.32 1.56.64 3.16.87 4.34 1.75 8.68 2.61 13.03 2.21 11.03 4.45 21.98 7.47 32.83 1.79 6.71 3.15 13.53 4.57 20.34.3 1.43.6 2.87.9 4.31q2.295 10.92 4.47 21.87c3.63 23.08 3.63 23.08 11 45 3.12-1.5 6.05-3.21 9-5l2-1c-.55-4.62-1.82-8.03-4-12.12-3.49-6.61-5.25-12.36-4-19.88 3.37-7.53 9.03-13.53 14.63-19.47 2.05-2.18 3.97-4.41 5.87-6.71.83-.93 1.65-1.86 2.5-2.82h2c.39.8.39.8.78 1.62 7.57 18.69 7.57 18.69 20.06 33.48 3.49-.16 6.05-2.01 8.91-3.85.6-.36 1.21-.72 1.83-1.09 1.93-1.17 1.93-1.17 4.42-3.16v-3l2.5-.12c3.35-.84 4.43-1.4 7.01-3.46 5.11-3.95 10.5-7.42 15.93-10.92 1.98-1.28 3.96-2.56 5.93-3.84.95-.62 1.91-1.23 2.89-1.86 2.55-1.67 5.07-3.37 7.59-5.08 3.28-2.2 6.6-3.99 10.15-5.72 2.28-1.39 4.52-2.79 6.75-4.25.56-.35 1.12-.71 1.69-1.08 3.51-2.27 6.93-4.63 10.33-7.05 5.25-3.68 10.67-7.01 16.17-10.3 7.51-4.53 14.97-9.12 22.37-13.82 6.18-3.92 12.38-7.8 18.69-11.5-.44-5.53-1.82-8.51-5-13-.74-1.7-1.48-3.41-2.2-5.13-2.1-4.9-4.66-9.61-7.1-14.35-1-1.94-1.99-3.9-2.98-5.85-3.08-6.01-6.22-11.68-10.44-16.99-1.99-2.61-3.32-5.46-4.71-8.43-2.66-5.53-5.46-10.97-8.38-16.37-.34-.63-.67-1.25-1.02-1.9-1.38-2.54-2.75-5.08-4.14-7.62-.98-1.8-1.95-3.6-2.93-5.4l-1.73-3.19c-3.6-7.3-3.31-16.04-1.37-23.83 4.32-12.67 15.17-21.52 25.24-29.62 2.58-2.16 4.92-4.41 7.26-6.82 3.93-4.03 8.12-7.51 12.52-11.01 4.06-3.38 7.87-7 11.66-10.68 4-3.81 4-3.81 7.32-3.81.42.86.83 1.71 1.26 2.59 8.83 17.99 18.59 35.51 28.2 53.09 3.86 7.05 7.67 14.12 11.48 21.2 12.49 23.27 12.49 23.27 25.19 46.44.35.64.71 1.29 1.07 1.95 1.65 2.95 3.22 5.51 5.8 7.73 4.59-1.37 8.57-3.29 12.69-5.68 1.4-.81 2.81-1.61 4.21-2.41.79-.45 1.58-.9 2.4-1.37 4.9-2.79 9.81-5.54 14.73-8.29 1.74-.97 3.48-1.95 5.22-2.93 24.92-13.92 24.92-13.92 39.33-10.75 4.35 1.41 8.35 3.34 12.42 5.43h2c.28.88.55 1.76.83 2.66 1.1 3.14 2.39 5.92 3.96 8.85.79 1.51.79 1.51 1.61 3.05.82 1.55.82 1.55 1.67 3.13 1.09 2.07 2.19 4.13 3.28 6.2.48.91.97 1.82 1.47 2.76 2.72 5.41 3.04 10.4 2.18 16.35-4.97 13.79-12.96 21.6-26.06 27.94-2.06 1.03-4.11 2.06-6.16 3.1-1.49.75-1.49.75-3 1.52-3.7 1.92-7.24 4.05-10.78 6.26-7.05 4.37-14.42 7.81-22 11.18l-2 1c-.7 4.46.35 6.91 2.67 10.59 3.18 5.13 6.09 10.36 8.96 15.66l3.15 5.82c.54.98 1.07 1.96 1.62 2.98 1.56 2.87 3.13 5.74 4.7 8.6 4.71 8.6 9.38 17.22 13.9 25.91 3.5 6.73 7.2 13.32 11 19.88 4.46 7.7 8.56 15.51 12.47 23.5 3.1 6.29 6.47 12.37 10.04 18.41 1.49 2.65 1.49 2.65 2.49 5.65-5.12 1.5-10.23 2.99-15.35 4.48-1.74.51-3.47 1.01-5.21 1.52-9.93 2.91-19.87 5.69-29.94 8.11-3.62.92-7.13 2-10.69 3.14-12.77 3.65-24.62 2.04-36.43-4-3.67-2.18-5.4-4.76-7.5-8.5-.37-.64-.73-1.27-1.11-1.93-1.28-2.26-2.53-4.54-3.77-6.82-.75-1.36-.75-1.36-1.51-2.76-2.78-5.09-5.54-10.2-8.29-15.32-2.7-5.02-5.47-10.01-8.26-14.98-4.45-7.93-8.66-15.98-12.83-24.06-3.02-5.84-3.02-5.84-6.22-11.59-2.02-3.52-3.85-7.09-5.64-10.73-.31-.63-.63-1.27-.95-1.92-.77-1.55-1.53-3.09-2.3-4.64-4.08-.18-6.79.02-10.37 2-.69.37-1.38.75-2.09 1.13-.51.29-1.01.57-1.54.87v2c-1.28.15-1.28.15-2.58.3-3.75.77-6.76 2.18-10.11 3.95-1.4.73-2.8 1.45-4.21 2.17-1.19.6-1.19.6-2.4 1.22-6.57 3.31-13.22 6.44-19.85 9.62-6.4 3.07-12.77 6.19-19.08 9.42-2.94 1.4-5.91 2.57-8.96 3.7-7.53 2.8-14.71 6.28-21.96 9.75-2.28 1.08-4.59 2.11-6.91 3.12-4.88 2.14-9.62 4.54-14.34 7.01-3.86 1.99-7.56 3.82-11.72 5.06-7.33 2.25-14.09 6.18-20.88 9.68.58 4 1.82 6.71 3.94 10.13 3.33 5.55 6.42 11.2 9.44 16.93.44.84.88 1.67 1.33 2.53.42.79.83 1.57 1.25 2.39.37.7.74 1.4 1.12 2.13.92 1.89.92 1.89 1.92 4.89-.64.05-1.28.1-1.95.15-5.17.43-10.24 1.03-15.36 1.91-19.7 3.1-19.7 3.1-27.69-2.06-5.7-5.22-10.56-12.68-13-20-6.83.36-19.88 1.88-25 7-.32 6 .5 11.21 2 17h2c-.04.93-.09 1.85-.13 2.8 0 5.26 1.22 10.26 2.33 15.37.23 1.08.46 2.16.69 3.27.49 2.28.99 4.56 1.48 6.84.75 3.42 1.47 6.84 2.2 10.27 7.9 36.89 19.63 69.01 51.43 91.45 1.01.74 2.02 1.48 3.06 2.24 9.05 6.25 18.83 10.41 28.92 14.72 8.34 3.57 16.53 7.43 24.72 11.31 14.18 7.21 14.18 7.21 29.3 11.73v2c10.99 5.36 21.97 10.66 33.25 15.38 9.28 3.89 18.32 8.2 27.37 12.6s18.16 8.65 27.3 12.85c5.34 2.44 10.67 4.91 15.97 7.44 33.09 15.78 67.15 25.44 103.22 13.01 6.26-2.28 12.19-4.81 17.89-8.28 2.52-1.26 5.04-2.51 7.57-3.75 4.91-2.42 9.72-4.93 14.43-7.75 4.37-2.6 8.81-4.95 13.38-7.18 7.54-3.71 14.91-7.71 22.28-11.75 5.91-3.25 11.86-6.44 17.84-9.57 12.16-6.35 24.21-12.91 36.17-19.61 3.95-2.2 7.96-4.22 12.02-6.2 6.42-3.17 12.63-6.59 18.82-10.2 2.98-1.72 6.03-3.31 9.1-4.89 12.44-6.41 23.26-14.43 33.39-24.1.69-.61 1.37-1.22 2.08-1.85 20.15-18.64 26.38-47.34 32.02-73.02.72-3.29 1.46-6.57 2.2-9.85.47-2.11.94-4.23 1.41-6.35.22-.96.43-1.93.66-2.92 2.77-12.72 3.16-21.1-3.24-32.63-.4-.73-.79-1.45-1.19-2.2-1.31-2.4-2.62-4.79-3.94-7.18-.92-1.69-1.84-3.39-2.77-5.08-1.99-3.66-3.99-7.32-5.99-10.98-3.42-6.26-6.8-12.53-10.17-18.81-7.71-14.33-15.43-28.65-23.23-42.92-.77-1.41-.77-1.41-1.56-2.85-1-1.84-2.01-3.68-3.02-5.52-2.34-4.28-4.65-8.56-6.9-12.88-.41-.79-.82-1.58-1.25-2.39-.75-1.45-1.51-2.92-2.25-4.38-1.83-3.59-1.83-3.59-4.39-6.67-2.01-2.08-2.59-4.5-3.53-7.18-1.83-4.57-4.46-8.73-6.94-12.96-4.47-7.77-8.72-15.59-12.69-23.63-.44-.91-.89-1.82-1.36-2.76-.44-.9-.88-1.8-1.34-2.73-9.93-20.13-20.86-39.8-31.8-59.39-4.06-7.29-8.02-14.64-11.99-21.98-3.24-5.99-6.5-11.95-9.82-17.89-4.41-7.91-8.73-15.86-13.04-23.83-2.66-4.93-5.33-9.86-8.03-14.78-5.06-9.22-10.04-18.48-14.86-27.83-4.01-7.74-8.17-15.37-12.5-22.93-5.16-9.01-10.02-18.14-14.76-27.37q-5.235-10.14-10.74-20.13c-4.48-8.12-8.77-16.32-13-24.57-5-9.72-10.22-19.27-15.66-28.75-3.47-6.08-6.68-12.21-9.75-18.51-2.23-4.42-4.67-8.71-7.12-13.01-2.83-4.98-5.52-10.02-8.16-15.1-4.77-9.15-9.78-18.16-14.82-27.16-4.33-7.74-8.52-15.54-12.5-23.47-1.76-3.43-2.79-5.38-6.06-7.56-2.92-.21-5.75-.3-8.68-.3-.9 0-1.8-.01-2.72-.01-3.01-.02-6.02-.01-9.03 0h-3.16c-18.66.04-37.27.74-55.91 1.69m114.5-1.38c1.85 9.99 7.98 18.75 13.12 27.38 3.29 5.55 6.36 11.19 9.35 16.91 4.55 8.69 9.28 17.28 13.99 25.89 1.51 2.76 3.02 5.53 4.52 8.31 5.11 9.41 10.29 18.77 15.59 28.07 4.69 8.25 9.18 16.57 13.54 25 3.16 6.1 6.48 12.11 9.88 18.08a243 243 0 0 1 8.01 15.36h3c.03.9.06 1.8.1 2.73.88 6.13 4.43 11.38 7.4 16.71.65 1.18 1.29 2.35 1.94 3.53 3.67 6.69 7.39 13.35 11.16 19.99 3.33 5.86 6.52 11.79 9.71 17.73 4.13 7.66 8.34 15.27 12.69 22.81 4.84 8.4 9.49 16.89 14.08 25.42 3.71 6.9 7.54 13.72 11.42 20.52 5.22 9.14 10.1 18.42 14.91 27.78 3.19 6.2 6.55 12.2 10.22 18.12 3.9 6.36 7.24 13 10.65 19.63 3.59 6.94 7.34 13.76 11.22 20.53 4.96 8.67 9.66 17.44 14.24 26.32 4.22 8.17 8.68 16.2 13.26 24.18h3c.06.94.12 1.88.17 2.85.79 5.41 3.51 9.9 6.08 14.65.54 1.01 1.08 2.02 1.63 3.06 4.75 8.88 9.69 17.64 14.68 26.39 3.49 6.12 6.92 12.27 10.35 18.43.93 1.68 1.87 3.37 2.8 5.05 4.95 8.9 4.95 8.9 7.19 13.16.61 1.17 1.23 2.33 1.86 3.53.55 1.06 1.1 2.11 1.67 3.2 1.37 2.33 2.47 4.01 4.57 5.68h2c6.25-25.39 12-50.88 17.57-76.44 5.52-25.38 11.16-50.73 16.93-76.06 4.35-19.07 8.67-38.14 12.85-57.25.18-.82.36-1.63.54-2.47 1.71-7.83 3.42-15.66 5.12-23.49 3.36-15.53 6.84-31.03 10.51-46.49 3.59-15.16 6.99-30.36 10.35-45.58 1.2-5.47 2.42-10.95 3.63-16.42l1.23-5.59c1.51-6.83 3.06-13.64 4.66-20.44 5.99-26.96-.01-56.17-14.01-79.62-20.49-31.97-51.97-45.29-87.57-53.21-54.13-11.85-109.19-17.91-164.43-21.62-.91-.07-1.81-.13-2.74-.19-6.21-.41-12.42-.79-18.64-1.13-1.35-.07-1.35-.07-2.74-.15-17.21-.92-34.41-.97-51.65-.92-3.58.01-7.16.02-10.74.02-6.96.01-13.91.03-20.87.05"/><path fill="#FFFFFF" d="M619.75 135.313c1.48.07 1.48.07 3 .15 3.08.17 6.17.35 9.25.54l3.03.16c2.87.17 5.73.37 8.6.59.86.05 1.73.1 2.63.15.81.07 1.63.14 2.47.21 1.06.07 1.06.07 2.14.15 5.37 1.86 8.11 7.01 10.65 11.77.61 1.14 1.22 2.28 1.85 3.45.31.59.62 1.18.93 1.78.95 1.8 1.91 3.6 2.88 5.39 5.09 9.56 5.09 9.56 5.82 13.35 13.64-7.27 27.23-14.58 40.59-22.36 1.2-.7 1.2-.7 2.44-1.41.7-.41 1.39-.82 2.11-1.24 4.25-2.27 8.18-2.24 12.86-1.99.67-.01 1.33-.01 2.02-.01 3.62.36 5.44 1.37 7.8 4.16 2.26 3.53 4.24 7.14 6.18 10.85l1.51 2.86c2.24 4.28 4.47 8.55 6.66 12.85 3.7 7.25 7.66 14.3 11.83 21.29 3.68-.58 6.39-1.58 9.61-3.45.88-.51 1.77-1.03 2.69-1.55.95-.56 1.91-1.12 2.89-1.69 8.93-5.14 17.92-10.13 27-15 1.11-.6 2.23-1.2 3.38-1.82 5.65-3.03 5.65-3.03 8.43-4.49.69-.41 1.37-.82 2.08-1.24 1.92-.76 1.92-.76 3.98-.68 2.75 1.3 3.46 2.92 4.9 5.57.55.99 1.1 1.98 1.66 3.01.58 1.08 1.16 2.16 1.75 3.27.61 1.11 1.21 2.21 1.84 3.35q2.415 4.44 4.8 8.88c.99 1.84 1.98 3.68 2.98 5.52 2.53 4.69 5.06 9.38 7.57 14.08.55 1.03 1.1 2.07 1.67 3.14.49.91.98 1.82 1.48 2.77 1.33 2.48 1.33 2.48 3.29 5.33.13 3.19.13 3.19 0 6-4.37 2.42-8.75 4.83-13.13 7.25l-1.97 1.09c-9.69 5.35-19.38 10.67-29.11 15.94-3.3 1.79-6.56 3.58-9.76 5.54-2.03 1.18-2.03 1.18-4.03 1.18 3.3 6.84 6.8 13.55 10.5 20.19.41.73.82 1.47 1.24 2.23 2.63 4.7 5.29 9.38 7.98 14.05.64 1.11 1.27 2.22 1.93 3.37 1.25 2.19 2.52 4.38 3.79 6.57 2.99 5.25 5.34 9.49 5.56 15.59-.51.28-1.03.56-1.56.85-2.54 1.38-5.08 2.76-7.63 4.15-.96.52-1.93 1.05-2.92 1.59-5.2 2.83-10.39 5.68-15.55 8.57-2.58 1.45-5.17 2.89-7.75 4.33-1.26.71-2.51 1.42-3.77 2.13-6.77 3.83-13.3 7.24-20.82 9.38-6.75-11.89-13.47-23.79-20.13-35.73-.98-1.74-1.95-3.48-2.93-5.22-8.11-14.56-8.11-14.56-7.7-18.11 1.37-3.5 5.13-4.72 8.32-6.38.79-.42 1.58-.85 2.39-1.28 1.74-.94 3.48-1.86 5.22-2.78 4.01-2.13 7.99-4.29 11.97-6.44 2.07-1.12 4.14-2.24 6.2-3.36 6.83-3.68 13.57-7.47 20.25-11.41 2.41-1.29 2.41-1.29 4.41-1.29-.51-.9-1.02-1.8-1.55-2.73-5.05-8.94-10.01-17.93-14.91-26.95-2.48-4.56-4.97-9.11-7.53-13.62-.46-.83-.93-1.65-1.41-2.51-.88-1.55-1.76-3.1-2.65-4.65-2.95-5.21-2.95-5.21-2.95-8.54-7.2 2.42-13.67 5.92-20.25 9.64-8.26 4.67-16.61 9.15-24.98 13.62-1.06.57-2.13 1.15-3.23 1.73-1.42.76-1.42.76-2.87 1.54-2.71 1.44-2.71 1.44-5.27 3.22-2.4 1.25-2.4 1.25-4.5 1.23-7.53-3.91-11.98-17.71-15.65-24.98a566 566 0 0 0-18.25-33c-13.13 6.67-26.04 13.6-38.66 21.19-5.61 3.34-11.21 6.22-17.23 8.75-2.27.87-2.27.87-3.11 3.06-3-1-3-1-4.42-3.32-.49-1.02-.98-2.04-1.48-3.1l-1.68-3.46c-.29-.61-.59-1.22-.89-1.85-1.53-3.2-3.1-6.39-4.67-9.57-.32-.65-.63-1.29-.96-1.96-4.09-8.22-8.67-16.16-13.26-24.11-6.45-11.28-6.45-11.28-5.64-15.63 9.77-10.03 24.77-10.36 37.75-9.69m153.208 219.783c3.06 1.36 3.74 3.37 5.26 6.32.59 1.14 1.19 2.28 1.81 3.46.64 1.25 1.27 2.5 1.91 3.75 1.33 2.56 2.67 5.12 4.01 7.67.34.65.68 1.3 1.02 1.96 3.78 7.23 7.83 14.31 11.91 21.37 2.69 4.7 5.11 9.33 7.12 14.37-3.76 4.5-8.72 6.76-13.81 9.44-1.98 1.06-3.96 2.12-5.93 3.18-1.03.55-2.05 1.11-3.11 1.67-6.18 3.36-12.28 6.86-18.38 10.35a736 736 0 0 1-7.77 4.36c-.74.43-1.49.86-2.26 1.3-2.84 1.55-5.23 2.66-8.47 2.93-3.59-1.94-4.83-5.24-6.52-8.79-.79-1.57-1.58-3.15-2.37-4.72-.4-.79-.8-1.59-1.21-2.41-1.7-3.35-3.55-6.61-5.42-9.87-1.59-2.81-3.17-5.62-4.75-8.44-.55-.98-1.11-1.97-1.68-2.99-1.82-3.26-3.63-6.54-5.44-9.82-.6-1.06-1.19-2.11-1.8-3.2-.54-.99-1.09-1.98-1.65-3.01-.49-.88-.98-1.77-1.49-2.69-.94-2.29-.94-2.29.06-5.29 2.11-1.4 2.11-1.4 4.91-2.86l3.16-1.67c1.13-.59 2.26-1.17 3.43-1.78 2.37-1.25 4.74-2.5 7.11-3.76l1.84-.97c7.57-4 15-8.22 22.45-12.42 2.7-1.52 5.4-3.03 8.1-4.54 1.14-.64 2.28-1.29 3.45-1.95 2.55-1.05 2.55-1.05 4.51-.95"/><path fill="#FFFFFF" d="M707 234c1.68 2.35 1.68 2.35 3.66 5.63.53.88.53.88 1.07 1.77 3.81 6.39 7.3 12.95 10.77 19.54 4.54 8.58 9.13 17.1 14.18 25.4 1.44 2.91 1.95 5.45 2.32 8.66-6.65 4.69-13.55 8.47-20.81 12.12-9.2 4.69-18.11 9.64-26.82 15.19-4.14 2.58-7.37 4.34-12.37 4.69-3.91-6.06-7.29-12.27-10.56-18.69-4.59-8.92-9.4-17.67-14.52-26.31-2.86-4.89-5.09-9.63-6.92-15 13.13-7.78 26.33-15.38 39.8-22.56 5.52-2.95 10.9-6.02 16.21-9.34C705 234 705 234 707 234"/><path fill="#FFFFFF" d="M560 357c3.43 4.09 5.94 8.74 7 14h3c5.8 12.33 5.8 12.33 7.88 18 2.74 7.04 6.86 14.82 12.29 20.12 2.88 2.96 3.03 5.89 3.83 9.88.89-.25.89-.25 1.79-.51 7.85-2.02 7.85-2.02 12.21.51.81 3.12.81 3.12 1 7-.85 1.01-1.69 2.02-2.56 3.06-1.21 1.46-1.21 1.46-2.44 2.94 1.12 5.21 3.9 9.8 6.44 14.44 2.78 5.11 5.29 10.19 7.56 15.56 1.58 3.38 3.22 6.72 4.88 10.06.42.87.84 1.75 1.27 2.65 2.49 5.02 5.09 9.13 8.85 13.29 2.43 3.59 2.52 6.73 2 11-2.42 3.28-4.16 4.7-8 6.06-3.98-.08-5.11-1.38-8-4.06-1.68-2.51-1.68-2.51-3.16-5.34-.56-1.05-1.12-2.11-1.7-3.19-.58-1.13-1.17-2.25-1.76-3.41l-1.85-3.49c-1.86-3.51-3.69-7.04-5.53-10.57-1.6-3.06-3.21-6.12-4.81-9.18-.94-1.8-1.88-3.6-2.81-5.41-.42-.8-.84-1.61-1.27-2.44-.36-.7-.72-1.39-1.1-2.11-.91-1.68-1.95-3.27-3.01-4.86-.15-.61-.29-1.22-.44-1.85-.73-2.8-2.02-4.99-3.45-7.5-.6-1.06-1.2-2.13-1.82-3.23-.32-.57-.64-1.13-.98-1.72a849 849 0 0 1-16.75-31.01c-8.23-16.5-8.23-16.5-18.56-31.69-1.93-4.43-2.36-8.19-2-13 3.05-4.57 6.74-4.98 12-4"/><path fill="#FFFFFF" d="M821 487c-1.51 7.09-3.02 14.19-4.54 21.28-.7 3.3-1.41 6.59-2.11 9.89l-2.43 11.41c-.25 1.16-.5 2.32-.75 3.52-1.57 7.34-3.3 14.63-5.17 21.9-3.68-1.23-3.81-1.99-5.5-5.36-.47-.92-.94-1.84-1.42-2.79-.5-1-1-2.01-1.52-3.04-1.06-2.09-2.13-4.18-3.2-6.26-.55-1.08-1.1-2.16-1.66-3.27-2.74-5.28-5.59-10.5-8.45-15.72-.53-.96-1.05-1.91-1.59-2.9L779 509c2.02-2.15 3.97-3.72 6.52-5.2.69-.4 1.37-.8 2.08-1.21.73-.42 1.46-.84 2.21-1.28q1.125-.645 2.28-1.32c1.55-.9 3.1-1.79 4.65-2.69 2.11-1.21 4.21-2.44 6.32-3.66 13.82-8.01 13.82-8.01 17.94-6.64"/><path fill="#FFFFFF" d="M841 397a2488 2488 0 0 1-12 54h-3c-.33-.58-.66-1.17-1.01-1.77-1.53-2.7-3.07-5.4-4.61-8.11-.53-.91-1.05-1.83-1.59-2.78-3.11-5.46-6.29-10.85-9.62-16.19-1.45-2.67-2.01-5.12-2.17-8.15 6.58-4.56 13.36-8.59 20.38-12.44.98-.55 1.96-1.1 2.98-1.68.94-.51 1.88-1.03 2.85-1.56 1.27-.71 1.27-.71 2.57-1.43C838 396 838 396 841 397"/><path fill="#FFFFFF" d="M861 308c-.77 3.89-1.55 7.79-2.34 11.68-.4 1.95-.79 3.91-1.18 5.87A211 211 0 0 1 851 350c-3.52-1.17-3.69-1.72-5.38-4.86-.42-.79-.85-1.57-1.29-2.38l-1.33-2.51c-.87-1.62-1.75-3.24-2.62-4.86-.41-.77-.82-1.53-1.25-2.33-.9-1.64-1.88-3.24-2.88-4.83-1.35-2.42-1.86-4.5-2.25-7.23 20.16-15.28 20.16-15.28 27-13"/></svg>